PathFileType	4	(X/Y/Z)	Patient4_TMGait_0pt3_03_left_10.trc.trc
DataRate	CameraRate	NumFrames	NumMarkers	Units	OrigDataRate	OrigDataStartFrame	OrigNumFrames
52.044609665428	52.044609665428	5	33	mm	52.044609665428	89	       141
Frame#	Time	Sacral			L.Shoulder			Chest			R.Shoulder			Neck			R.ASIS			L.ASIS			R.Thigh.Superior			R.Thigh.Lateral			R.Thigh.Inferior			R.Patella			L.Thigh.Superior			L.Thigh.Lateral			L.Thigh.Inferior			L.Patella			L.Shank.Superior			L.Shank.Lateral			L.Shank.Inferior			R.Shank.Superior			R.Shank.Lateral			R.Shank.Inferior			R.Heel			R.Midfoot.Superior			R.Midfoot.Lateral			R.Toe			L.Heel			L.Midfoot.Lateral			L.Midfoot.Superior			L.Toe			L.Elbow			L.Wrist			R.Elbow			R.Wrist			
		X1	Y1	Z1	X2	Y2	Z2	X3	Y3	Z3	X4	Y4	Z4	X5	Y5	Z5	X6	Y6	Z6	X7	Y7	Z7	X8	Y8	Z8	X9	Y9	Z9	X10	Y10	Z10	X11	Y11	Z11	X12	Y12	Z12	X13	Y13	Z13	X14	Y14	Z14	X15	Y15	Z15	X16	Y16	Z16	X17	Y17	Z17	X18	Y18	Z18	X19	Y19	Z19	X20	Y20	Z20	X21	Y21	Z21	X22	Y22	Z22	X23	Y23	Z23	X24	Y24	Z24	X25	Y25	Z25	X26	Y26	Z26	X27	Y27	Z27	X28	Y28	Z28	X29	Y29	Z29	X30	Y30	Z30	X31	Y31	Z31	X32	Y32	Z32	X33	Y33	Z33	

89	19.630857142857	780.638641426509	1009.256523826882	496.883970121382	1005.653985749766	1435.140748352420	357.430919934610	1070.576172397311	1362.023061235066	534.430364162569	956.151744958355	1437.758437436338	688.363075023608	953.110028064780	1494.848348191394	509.703018243475	989.773415061280	939.420181693682	649.163055626819	1015.819546931410	959.957253175352	376.720018296951	1045.723716406089	746.100608957560	617.364184100119	967.181789296356	632.169969059280	669.788864138555	1053.380347781357	585.254049551111	594.505091401566	1060.128693215781	497.816434402711	600.862253028490	1029.456902522048	733.237651329455	393.983638818873	932.438768370756	630.289495820144	316.041267620699	1002.239237083775	538.244049679171	378.407826432263	990.803077173390	460.856535360332	376.677269137067	935.125319766920	403.226677891989	363.598925414947	810.481726037701	334.107337006069	303.242508454322	817.825311381515	204.170597842388	358.840108198461	1033.529686351985	407.546761939610	607.076501839257	962.872635257812	302.440118715763	668.050414057908	1009.106801222500	208.063880878494	606.280948658722	879.166418543673	42.832766706866	575.417424712179	1049.481214088140	97.774154016437	613.601381616144	961.888596863282	37.003506383818	651.292312049212	1169.459051394648	48.190384689181	642.301759966844	645.365732284548	90.352035903499	386.077902441622	717.491643505885	65.973190051519	309.063172360529	812.778786199422	105.684080758667	336.249208744652	922.629892697379	34.204532664539	311.421937463846	1120.349589041617	1123.876348166295	209.342018462289	1375.908513232959	1077.441563039124	230.688715372491	818.237137272625	1116.200110106288	788.423815729234	838.431024685576	857.028106756403	818.349504165197	
90	19.650071428571	780.059308205551	1009.585596428866	503.804490422309	1003.788989786462	1435.560219397012	362.063446065422	1070.659511632811	1362.094078669137	538.321495744944	957.995170066208	1437.726197776900	693.472898327818	952.963141414783	1495.187098629737	514.830342354980	990.766088510203	939.599183353077	653.682567437974	1013.906836401520	960.289922413968	380.998315327020	1045.017350944806	745.318320032241	621.540229186627	965.504510808408	631.845705856449	673.467589121442	1050.983073445095	584.575843072379	597.655088321505	1057.017844128909	497.030844418757	603.450564325604	1032.923282563900	735.495504532567	398.535818059133	939.614927548591	630.310474229801	320.344430381754	1012.354670746445	539.563886831753	382.675260963534	1001.985082851862	460.588412767744	379.781230868287	943.926995931279	403.643315243512	366.591353472425	816.760541459988	339.291114773452	306.302700913631	820.526148343709	208.576021450900	360.122993837586	1029.829053979059	406.999774335034	609.191721240731	958.763917935257	301.947635995983	669.663914343418	1004.196413312340	207.701562419239	607.131952393683	873.465798976598	42.811680790267	575.525185290701	1043.747609112140	97.746726990994	613.873793108779	956.189505555744	36.954999595310	651.393180754100	1163.783375943238	48.039398016243	642.497377467674	644.401977084900	101.715166594361	386.758016680497	715.160173857765	74.302150247366	309.503699506547	812.221777936926	109.189399240029	336.520177615540	917.761870319905	33.306948252722	311.333774011400	1113.171336087095	1120.752484796999	215.533571948981	1367.062880248838	1063.587721250314	236.183131470197	825.676556865489	1114.456037089800	797.601796439070	854.578560062301	856.191849949291	828.638740786164	
91	19.669285714286	779.267349630635	1009.646685981075	510.649462799788	1001.595888322666	1435.678272331179	366.321086754881	1070.508268364809	1361.964143058723	541.799529706748	959.701754513959	1437.520834582334	698.206863661815	952.661968237444	1495.312125087439	519.590820523694	991.637804883433	939.622265435976	657.991922551873	1011.707467941722	960.402354220602	385.058135287331	1044.416104239117	744.541457191561	625.406397639087	964.171725868501	631.386505260784	676.953218476975	1048.951902002380	583.876716334533	600.584466945665	1054.361536168561	496.143223361697	605.890294848502	1036.695742470737	738.061185798967	403.204513656582	947.691278690147	630.445706308775	324.669105971605	1023.413937784092	541.334972203083	387.275031608220	1014.253362661294	460.719200110385	383.203472301810	953.849408216979	404.322245285898	369.840277899872	824.232674344077	345.018914885399	309.668819041389	824.125765732919	213.713099003405	361.837910370465	1026.479345594848	406.340416914907	611.163998267140	954.935122959245	301.419343398305	671.192296268194	999.435938043895	207.269833358269	607.898924364886	867.728531664370	42.819709313675	575.609464748977	1038.007734948029	97.697326050715	614.122348422612	950.442189835041	36.912938339370	651.472018634591	1158.076680917239	47.800254228728	642.691206259821	644.404884751800	114.389053117152	387.975193682904	713.579431668017	84.004871682276	310.366669643697	812.328637942867	113.657110609179	337.238170193162	913.148391498616	32.718046075530	311.392115820343	1105.115233377510	1117.044930161213	221.744771865708	1356.585147532197	1048.149177870303	241.719891266146	833.669796247684	1112.398208120046	806.409523405124	871.764634875120	855.376020099545	838.275832325956	
92	19.688500000000	778.294930741030	1009.419310817709	517.355947666159	999.081077025180	1435.488969737857	370.207218614774	1070.104585751989	1361.639226486132	544.874149303679	961.222815141513	1437.137503778888	702.560960163180	952.186398037176	1495.214031377647	523.977033003354	992.402884946761	939.480625691853	662.081227584400	1009.277095227768	960.306051776440	388.907888346236	1044.003152555776	743.788995432480	628.948489482485	963.290313320836	630.783003422082	680.216025107042	1047.425785419903	583.157504645154	603.282238301762	1052.325541871709	495.135464304803	608.163379036046	1040.665308765512	740.932539150766	407.959445132252	956.467277128394	630.791129817915	328.987019811838	1035.147819697263	543.633291294656	392.151626879189	1027.346201911453	461.357433513041	386.906395593668	964.668782730618	405.341862230369	373.326275620208	832.714368020167	351.275097763013	313.355717191579	828.523170323904	219.597249588210	364.047661317891	1023.607224157030	405.549368797125	612.970785273953	951.476881682776	300.861115741252	672.624396833982	994.877801216680	206.759571427650	608.571065234127	861.968048595266	42.856894977138	575.679735553111	1032.268359569735	97.621998837833	614.329164183864	944.660523193184	36.881239133905	651.532009556199	1152.350857201528	47.485579165983	642.874895033736	645.383496832063	128.208235144502	389.846407434464	712.790789491266	94.987846472586	311.775432055851	813.074997903452	119.154515789485	338.501375680283	908.875437825466	32.657984552057	311.706704001215	1096.206841545836	1112.828549004857	227.935007256004	1344.281820127421	1031.207676712240	247.242314833889	842.196949144944	1110.029572131367	814.761210879272	890.016557302565	854.653588128927	847.137305176613	
93	19.707714285714	777.178371090181	1008.896168939626	523.859666615354	996.261242208966	1434.999870127967	373.737113218014	1069.443680274989	1361.130610232290	547.566295104297	962.529847191298	1436.580213601383	706.543710151880	951.521723890060	1494.891632544678	527.994760056903	993.071622193431	939.167907184845	665.943385355881	1006.682339635914	960.022443339977	392.561453613350	1043.832322910743	743.061484195130	632.175439656033	962.911749386940	630.023875315750	683.230555100766	1046.486507042479	582.411113756736	605.742591074717	1051.008513931219	493.991703767155	610.249293728552	1044.720292034692	744.085120428907	412.758899962888	965.717266572743	631.421674266748	333.267779891811	1047.279385656069	546.499803651687	397.216381543378	1040.991855497540	462.578927315099	390.822984986422	976.143270335422	406.755653842889	377.012071900502	841.995014062798	357.998836286712	317.357822740054	833.602630732967	226.184165373518	366.788039959258	1021.286432165761	404.611550663155	614.591737102046	948.436732459992	300.276663779149	673.944944822449	990.550345833898	206.166682683736	609.140983863012	856.197541238569	42.921217704972	575.745086164438	1026.531548741956	97.515799489612	614.475003457419	938.859158782532	36.862737914600	651.577005816217	1146.616170877770	47.115492806226	643.043430655112	647.309086689498	142.908067043495	392.454080009514	712.817312894778	107.043275549484	313.832191312003	814.433098320141	125.665927918298	340.385773934104	905.060109100651	33.346959999576	312.406087651041	1086.497659997699	1108.203139043580	234.069067046982	1329.967058478324	1012.891429204992	252.690379761648	851.224525043237	1107.380121040911	822.578476729426	909.344979439609	854.140822086762	855.102825192149	
